# Tiled2Unity generated file. Do not modify by hand.
# Wavefront file for 'The-room-of-boredom_mesh_0008.obj'

# Vertices (Count = 192)
v -2.5 -7.5 0
v -3 -7.5 0
v -3 -7 0
v -2.5 -7 0
v -3 -7.5 0
v -3.5 -7.5 0
v -3.5 -7 0
v -3 -7 0
v -3.5 -7.5 0
v -4 -7.5 0
v -4 -7 0
v -3.5 -7 0
v -4 -7.5 0
v -4.5 -7.5 0
v -4.5 -7 0
v -4 -7 0
v -2.5 -7 0
v -3 -7 0
v -3 -6.5 0
v -2.5 -6.5 0
v -3 -7 0
v -3.5 -7 0
v -3.5 -6.5 0
v -3 -6.5 0
v -3.5 -7 0
v -4 -7 0
v -4 -6.5 0
v -3.5 -6.5 0
v -4 -7 0
v -4.5 -7 0
v -4.5 -6.5 0
v -4 -6.5 0
v -2.5 -6.5 0
v -3 -6.5 0
v -3 -6 0
v -2.5 -6 0
v -3 -6.5 0
v -3.5 -6.5 0
v -3.5 -6 0
v -3 -6 0
v -3.5 -6.5 0
v -4 -6.5 0
v -4 -6 0
v -3.5 -6 0
v -4 -6.5 0
v -4.5 -6.5 0
v -4.5 -6 0
v -4 -6 0
v -2.5 -6 0
v -3 -6 0
v -3 -5.5 0
v -2.5 -5.5 0
v -3 -6 0
v -3.5 -6 0
v -3.5 -5.5 0
v -3 -5.5 0
v -3.5 -6 0
v -4 -6 0
v -4 -5.5 0
v -3.5 -5.5 0
v -4 -6 0
v -4.5 -6 0
v -4.5 -5.5 0
v -4 -5.5 0
v -2.5 -5.5 0
v -3 -5.5 0
v -3 -5 0
v -2.5 -5 0
v -3 -5.5 0
v -3.5 -5.5 0
v -3.5 -5 0
v -3 -5 0
v -3.5 -5.5 0
v -4 -5.5 0
v -4 -5 0
v -3.5 -5 0
v -4 -5.5 0
v -4.5 -5.5 0
v -4.5 -5 0
v -4 -5 0
v -2.5 -5 0
v -3 -5 0
v -3 -4.5 0
v -2.5 -4.5 0
v -3 -5 0
v -3.5 -5 0
v -3.5 -4.5 0
v -3 -4.5 0
v -3.5 -5 0
v -4 -5 0
v -4 -4.5 0
v -3.5 -4.5 0
v -4 -5 0
v -4.5 -5 0
v -4.5 -4.5 0
v -4 -4.5 0
v -5 -5 0
v -5.5 -5 0
v -5.5 -4.5 0
v -5 -4.5 0
v -5.5 -5 0
v -6 -5 0
v -6 -4.5 0
v -5.5 -4.5 0
v -11.5 -5 0
v -12 -5 0
v -12 -4.5 0
v -11.5 -4.5 0
v -12 -5 0
v -12.5 -5 0
v -12.5 -4.5 0
v -12 -4.5 0
v -12.5 -5 0
v -13 -5 0
v -13 -4.5 0
v -12.5 -4.5 0
v -13 -5 0
v -13.5 -5 0
v -13.5 -4.5 0
v -13 -4.5 0
v -2.5 -4.5 0
v -3 -4.5 0
v -3 -4 0
v -2.5 -4 0
v -3 -4.5 0
v -3.5 -4.5 0
v -3.5 -4 0
v -3 -4 0
v -3.5 -4.5 0
v -4 -4.5 0
v -4 -4 0
v -3.5 -4 0
v -4 -4.5 0
v -4.5 -4.5 0
v -4.5 -4 0
v -4 -4 0
v -5 -4.5 0
v -5.5 -4.5 0
v -5.5 -4 0
v -5 -4 0
v -5.5 -4.5 0
v -6 -4.5 0
v -6 -4 0
v -5.5 -4 0
v -11.5 -4.5 0
v -12 -4.5 0
v -12 -4 0
v -11.5 -4 0
v -12 -4.5 0
v -12.5 -4.5 0
v -12.5 -4 0
v -12 -4 0
v -12.5 -4.5 0
v -13 -4.5 0
v -13 -4 0
v -12.5 -4 0
v -13 -4.5 0
v -13.5 -4.5 0
v -13.5 -4 0
v -13 -4 0
v -5 -4 0
v -5.5 -4 0
v -5.5 -3.5 0
v -5 -3.5 0
v -5.5 -4 0
v -6 -4 0
v -6 -3.5 0
v -5.5 -3.5 0
v -11.5 -4 0
v -12 -4 0
v -12 -3.5 0
v -11.5 -3.5 0
v -12 -4 0
v -12.5 -4 0
v -12.5 -3.5 0
v -12 -3.5 0
v -12.5 -4 0
v -13 -4 0
v -13 -3.5 0
v -12.5 -3.5 0
v -13 -4 0
v -13.5 -4 0
v -13.5 -3.5 0
v -13 -3.5 0
v -5 -3.5 0
v -5.5 -3.5 0
v -5.5 -3 0
v -5 -3 0
v -5.5 -3.5 0
v -6 -3.5 0
v -6 -3 0
v -5.5 -3 0

# Texture cooridinates (Count = 73)
vt 0 0.65
vt 0.025 0.65
vt 0.025 0.675
vt 0 0.675
vt 0.05 0.65
vt 0.05 0.675
vt 0.075 0.65
vt 0.075 0.675
vt 0.1 0.65
vt 0.1 0.675
vt 0.025 0.7
vt 0 0.7
vt 0.05 0.7
vt 0.075 0.7
vt 0.1 0.7
vt 0.1 0.85
vt 0.125 0.85
vt 0.125 0.875
vt 0.1 0.875
vt 0.15 0.85
vt 0.15 0.875
vt 0.175 0.85
vt 0.175 0.875
vt 0.2 0.85
vt 0.2 0.875
vt 0.125 0.9
vt 0.1 0.9
vt 0.15 0.9
vt 0.175 0.9
vt 0.2 0.9
vt 0.125 0.925
vt 0.1 0.925
vt 0.15 0.925
vt 0.175 0.925
vt 0.2 0.925
vt 0.125 0.95
vt 0.1 0.95
vt 0.15 0.95
vt 0.175 0.95
vt 0.2 0.95
vt 0 0.8
vt 0.025 0.8
vt 0.025 0.825
vt 0 0.825
vt 0.05 0.8
vt 0.05 0.825
vt 0 0.9
vt 0.025 0.9
vt 0.025 0.925
vt 0 0.925
vt 0.05 0.9
vt 0.05 0.925
vt 0.075 0.9
vt 0.075 0.925
vt 0.125 0.975
vt 0.1 0.975
vt 0.15 0.975
vt 0.175 0.975
vt 0.2 0.975
vt 0.025 0.85
vt 0 0.85
vt 0.05 0.85
vt 0.025 0.95
vt 0 0.95
vt 0.05 0.95
vt 0.075 0.95
vt 0.025 0.875
vt 0 0.875
vt 0.05 0.875
vt 0.025 0.975
vt 0 0.975
vt 0.05 0.975
vt 0.075 0.975

# Normal
vn 0 0 -1

# Mesh description
g The-room-of-boredom_mesh_0008

# Faces
f 1/1/1 2/2/1 3/3/1 4/4/1
f 5/2/1 6/5/1 7/6/1 8/3/1
f 9/5/1 10/7/1 11/8/1 12/6/1
f 13/7/1 14/9/1 15/10/1 16/8/1
f 17/4/1 18/3/1 19/11/1 20/12/1
f 21/3/1 22/6/1 23/13/1 24/11/1
f 25/6/1 26/8/1 27/14/1 28/13/1
f 29/8/1 30/10/1 31/15/1 32/14/1
f 33/16/1 34/17/1 35/18/1 36/19/1
f 37/17/1 38/20/1 39/21/1 40/18/1
f 41/20/1 42/22/1 43/23/1 44/21/1
f 45/22/1 46/24/1 47/25/1 48/23/1
f 49/19/1 50/18/1 51/26/1 52/27/1
f 53/18/1 54/21/1 55/28/1 56/26/1
f 57/21/1 58/23/1 59/29/1 60/28/1
f 61/23/1 62/25/1 63/30/1 64/29/1
f 65/27/1 66/26/1 67/31/1 68/32/1
f 69/26/1 70/28/1 71/33/1 72/31/1
f 73/28/1 74/29/1 75/34/1 76/33/1
f 77/29/1 78/30/1 79/35/1 80/34/1
f 81/32/1 82/31/1 83/36/1 84/37/1
f 85/31/1 86/33/1 87/38/1 88/36/1
f 89/33/1 90/34/1 91/39/1 92/38/1
f 93/34/1 94/35/1 95/40/1 96/39/1
f 97/41/1 98/42/1 99/43/1 100/44/1
f 101/42/1 102/45/1 103/46/1 104/43/1
f 105/47/1 106/48/1 107/49/1 108/50/1
f 109/48/1 110/51/1 111/52/1 112/49/1
f 113/51/1 114/53/1 115/54/1 116/52/1
f 117/53/1 118/27/1 119/32/1 120/54/1
f 121/37/1 122/36/1 123/55/1 124/56/1
f 125/36/1 126/38/1 127/57/1 128/55/1
f 129/38/1 130/39/1 131/58/1 132/57/1
f 133/39/1 134/40/1 135/59/1 136/58/1
f 137/44/1 138/43/1 139/60/1 140/61/1
f 141/43/1 142/46/1 143/62/1 144/60/1
f 145/50/1 146/49/1 147/63/1 148/64/1
f 149/49/1 150/52/1 151/65/1 152/63/1
f 153/52/1 154/54/1 155/66/1 156/65/1
f 157/54/1 158/32/1 159/37/1 160/66/1
f 161/61/1 162/60/1 163/67/1 164/68/1
f 165/60/1 166/62/1 167/69/1 168/67/1
f 169/64/1 170/63/1 171/70/1 172/71/1
f 173/63/1 174/65/1 175/72/1 176/70/1
f 177/65/1 178/66/1 179/73/1 180/72/1
f 181/66/1 182/37/1 183/56/1 184/73/1
f 185/68/1 186/67/1 187/48/1 188/47/1
f 189/67/1 190/69/1 191/51/1 192/48/1

