# Tiled2Unity generated file. Do not modify by hand.
# Wavefront file for 'The-room-of-boredom_mesh_0006.obj'

# Vertices (Count = 32)
v -11 -14 0
v -11.5 -14 0
v -11.5 -13.5 0
v -11 -13.5 0
v -11.5 -14 0
v -12 -14 0
v -12 -13.5 0
v -11.5 -13.5 0
v -11 -13.5 0
v -11.5 -13.5 0
v -11.5 -13 0
v -11 -13 0
v -11.5 -13.5 0
v -12 -13.5 0
v -12 -13 0
v -11.5 -13 0
v -11 -13 0
v -11.5 -13 0
v -11.5 -12.5 0
v -11 -12.5 0
v -11.5 -13 0
v -12 -13 0
v -12 -12.5 0
v -11.5 -12.5 0
v -11 -12.5 0
v -11.5 -12.5 0
v -11.5 -12 0
v -11 -12 0
v -11.5 -12.5 0
v -12 -12.5 0
v -12 -12 0
v -11.5 -12 0

# Texture cooridinates (Count = 15)
vt 0.85 0.85
vt 0.875 0.85
vt 0.875 0.875
vt 0.85 0.875
vt 0.9 0.85
vt 0.9 0.875
vt 0.875 0.9
vt 0.85 0.9
vt 0.9 0.9
vt 0.875 0.925
vt 0.85 0.925
vt 0.9 0.925
vt 0.875 0.95
vt 0.85 0.95
vt 0.9 0.95

# Normal
vn 0 0 -1

# Mesh description
g The-room-of-boredom_mesh_0006

# Faces
f 1/1/1 2/2/1 3/3/1 4/4/1
f 5/2/1 6/5/1 7/6/1 8/3/1
f 9/4/1 10/3/1 11/7/1 12/8/1
f 13/3/1 14/6/1 15/9/1 16/7/1
f 17/8/1 18/7/1 19/10/1 20/11/1
f 21/7/1 22/9/1 23/12/1 24/10/1
f 25/11/1 26/10/1 27/13/1 28/14/1
f 29/10/1 30/12/1 31/15/1 32/13/1

