# Tiled2Unity generated file. Do not modify by hand.
# Wavefront file for 'The-room-of-boredom_mesh_0005.obj'

# Vertices (Count = 64)
v -10.5 -14 0
v -11 -14 0
v -11 -13.5 0
v -10.5 -13.5 0
v -11 -14 0
v -11.5 -14 0
v -11.5 -13.5 0
v -11 -13.5 0
v -11.5 -14 0
v -12 -14 0
v -12 -13.5 0
v -11.5 -13.5 0
v -12 -14 0
v -12.5 -14 0
v -12.5 -13.5 0
v -12 -13.5 0
v -10.5 -13.5 0
v -11 -13.5 0
v -11 -13 0
v -10.5 -13 0
v -11 -13.5 0
v -11.5 -13.5 0
v -11.5 -13 0
v -11 -13 0
v -11.5 -13.5 0
v -12 -13.5 0
v -12 -13 0
v -11.5 -13 0
v -12 -13.5 0
v -12.5 -13.5 0
v -12.5 -13 0
v -12 -13 0
v -10.5 -13 0
v -11 -13 0
v -11 -12.5 0
v -10.5 -12.5 0
v -11 -13 0
v -11.5 -13 0
v -11.5 -12.5 0
v -11 -12.5 0
v -11.5 -13 0
v -12 -13 0
v -12 -12.5 0
v -11.5 -12.5 0
v -12 -13 0
v -12.5 -13 0
v -12.5 -12.5 0
v -12 -12.5 0
v -10.5 -12.5 0
v -11 -12.5 0
v -11 -12 0
v -10.5 -12 0
v -11 -12.5 0
v -11.5 -12.5 0
v -11.5 -12 0
v -11 -12 0
v -11.5 -12.5 0
v -12 -12.5 0
v -12 -12 0
v -11.5 -12 0
v -12 -12.5 0
v -12.5 -12.5 0
v -12.5 -12 0
v -12 -12 0

# Texture cooridinates (Count = 25)
vt 0.725 0.85
vt 0.75 0.85
vt 0.75 0.875
vt 0.725 0.875
vt 0.775 0.85
vt 0.775 0.875
vt 0.8 0.85
vt 0.8 0.875
vt 0.825 0.85
vt 0.825 0.875
vt 0.75 0.9
vt 0.725 0.9
vt 0.775 0.9
vt 0.8 0.9
vt 0.825 0.9
vt 0.75 0.925
vt 0.725 0.925
vt 0.775 0.925
vt 0.8 0.925
vt 0.825 0.925
vt 0.75 0.95
vt 0.725 0.95
vt 0.775 0.95
vt 0.8 0.95
vt 0.825 0.95

# Normal
vn 0 0 -1

# Mesh description
g The-room-of-boredom_mesh_0005

# Faces
f 1/1/1 2/2/1 3/3/1 4/4/1
f 5/2/1 6/5/1 7/6/1 8/3/1
f 9/5/1 10/7/1 11/8/1 12/6/1
f 13/7/1 14/9/1 15/10/1 16/8/1
f 17/4/1 18/3/1 19/11/1 20/12/1
f 21/3/1 22/6/1 23/13/1 24/11/1
f 25/6/1 26/8/1 27/14/1 28/13/1
f 29/8/1 30/10/1 31/15/1 32/14/1
f 33/12/1 34/11/1 35/16/1 36/17/1
f 37/11/1 38/13/1 39/18/1 40/16/1
f 41/13/1 42/14/1 43/19/1 44/18/1
f 45/14/1 46/15/1 47/20/1 48/19/1
f 49/17/1 50/16/1 51/21/1 52/22/1
f 53/16/1 54/18/1 55/23/1 56/21/1
f 57/18/1 58/19/1 59/24/1 60/23/1
f 61/19/1 62/20/1 63/25/1 64/24/1

