# Tiled2Unity generated file. Do not modify by hand.
# Wavefront file for 'The-room-of-boredom_mesh_0002.obj'

# Vertices (Count = 936)
v -0.5 -14 0
v -1 -14 0
v -1 -13.5 0
v -0.5 -13.5 0
v -1 -14 0
v -1.5 -14 0
v -1.5 -13.5 0
v -1 -13.5 0
v -1.5 -14 0
v -2 -14 0
v -2 -13.5 0
v -1.5 -13.5 0
v -2 -14 0
v -2.5 -14 0
v -2.5 -13.5 0
v -2 -13.5 0
v -2.5 -14 0
v -3 -14 0
v -3 -13.5 0
v -2.5 -13.5 0
v -3 -14 0
v -3.5 -14 0
v -3.5 -13.5 0
v -3 -13.5 0
v -3.5 -14 0
v -4 -14 0
v -4 -13.5 0
v -3.5 -13.5 0
v -4 -14 0
v -4.5 -14 0
v -4.5 -13.5 0
v -4 -13.5 0
v -4.5 -14 0
v -5 -14 0
v -5 -13.5 0
v -4.5 -13.5 0
v -5 -14 0
v -5.5 -14 0
v -5.5 -13.5 0
v -5 -13.5 0
v -5.5 -14 0
v -6 -14 0
v -6 -13.5 0
v -5.5 -13.5 0
v -6 -14 0
v -6.5 -14 0
v -6.5 -13.5 0
v -6 -13.5 0
v -6.5 -14 0
v -7 -14 0
v -7 -13.5 0
v -6.5 -13.5 0
v -7 -14 0
v -7.5 -14 0
v -7.5 -13.5 0
v -7 -13.5 0
v -7.5 -14 0
v -8 -14 0
v -8 -13.5 0
v -7.5 -13.5 0
v -8 -14 0
v -8.5 -14 0
v -8.5 -13.5 0
v -8 -13.5 0
v -8.5 -14 0
v -9 -14 0
v -9 -13.5 0
v -8.5 -13.5 0
v -9 -14 0
v -9.5 -14 0
v -9.5 -13.5 0
v -9 -13.5 0
v -9.5 -14 0
v -10 -14 0
v -10 -13.5 0
v -9.5 -13.5 0
v -10 -14 0
v -10.5 -14 0
v -10.5 -13.5 0
v -10 -13.5 0
v -10.5 -14 0
v -11 -14 0
v -11 -13.5 0
v -10.5 -13.5 0
v -11 -14 0
v -11.5 -14 0
v -11.5 -13.5 0
v -11 -13.5 0
v -11.5 -14 0
v -12 -14 0
v -12 -13.5 0
v -11.5 -13.5 0
v -12 -14 0
v -12.5 -14 0
v -12.5 -13.5 0
v -12 -13.5 0
v -12.5 -14 0
v -13 -14 0
v -13 -13.5 0
v -12.5 -13.5 0
v -13 -14 0
v -13.5 -14 0
v -13.5 -13.5 0
v -13 -13.5 0
v -13.5 -14 0
v -14 -14 0
v -14 -13.5 0
v -13.5 -13.5 0
v -14 -14 0
v -14.5 -14 0
v -14.5 -13.5 0
v -14 -13.5 0
v -0.5 -13.5 0
v -1 -13.5 0
v -1 -13 0
v -0.5 -13 0
v -1 -13.5 0
v -1.5 -13.5 0
v -1.5 -13 0
v -1 -13 0
v -1.5 -13.5 0
v -2 -13.5 0
v -2 -13 0
v -1.5 -13 0
v -2 -13.5 0
v -2.5 -13.5 0
v -2.5 -13 0
v -2 -13 0
v -2.5 -13.5 0
v -3 -13.5 0
v -3 -13 0
v -2.5 -13 0
v -3 -13.5 0
v -3.5 -13.5 0
v -3.5 -13 0
v -3 -13 0
v -3.5 -13.5 0
v -4 -13.5 0
v -4 -13 0
v -3.5 -13 0
v -4 -13.5 0
v -4.5 -13.5 0
v -4.5 -13 0
v -4 -13 0
v -4.5 -13.5 0
v -5 -13.5 0
v -5 -13 0
v -4.5 -13 0
v -5 -13.5 0
v -5.5 -13.5 0
v -5.5 -13 0
v -5 -13 0
v -5.5 -13.5 0
v -6 -13.5 0
v -6 -13 0
v -5.5 -13 0
v -6 -13.5 0
v -6.5 -13.5 0
v -6.5 -13 0
v -6 -13 0
v -6.5 -13.5 0
v -7 -13.5 0
v -7 -13 0
v -6.5 -13 0
v -7 -13.5 0
v -7.5 -13.5 0
v -7.5 -13 0
v -7 -13 0
v -7.5 -13.5 0
v -8 -13.5 0
v -8 -13 0
v -7.5 -13 0
v -8 -13.5 0
v -8.5 -13.5 0
v -8.5 -13 0
v -8 -13 0
v -8.5 -13.5 0
v -9 -13.5 0
v -9 -13 0
v -8.5 -13 0
v -9 -13.5 0
v -9.5 -13.5 0
v -9.5 -13 0
v -9 -13 0
v -9.5 -13.5 0
v -10 -13.5 0
v -10 -13 0
v -9.5 -13 0
v -10 -13.5 0
v -10.5 -13.5 0
v -10.5 -13 0
v -10 -13 0
v -10.5 -13.5 0
v -11 -13.5 0
v -11 -13 0
v -10.5 -13 0
v -11 -13.5 0
v -11.5 -13.5 0
v -11.5 -13 0
v -11 -13 0
v -11.5 -13.5 0
v -12 -13.5 0
v -12 -13 0
v -11.5 -13 0
v -12 -13.5 0
v -12.5 -13.5 0
v -12.5 -13 0
v -12 -13 0
v -12.5 -13.5 0
v -13 -13.5 0
v -13 -13 0
v -12.5 -13 0
v -13 -13.5 0
v -13.5 -13.5 0
v -13.5 -13 0
v -13 -13 0
v -13.5 -13.5 0
v -14 -13.5 0
v -14 -13 0
v -13.5 -13 0
v -14 -13.5 0
v -14.5 -13.5 0
v -14.5 -13 0
v -14 -13 0
v -0.5 -13 0
v -1 -13 0
v -1 -12.5 0
v -0.5 -12.5 0
v -1 -13 0
v -1.5 -13 0
v -1.5 -12.5 0
v -1 -12.5 0
v -1.5 -13 0
v -2 -13 0
v -2 -12.5 0
v -1.5 -12.5 0
v -2 -13 0
v -2.5 -13 0
v -2.5 -12.5 0
v -2 -12.5 0
v -2.5 -13 0
v -3 -13 0
v -3 -12.5 0
v -2.5 -12.5 0
v -3 -13 0
v -3.5 -13 0
v -3.5 -12.5 0
v -3 -12.5 0
v -3.5 -13 0
v -4 -13 0
v -4 -12.5 0
v -3.5 -12.5 0
v -4 -13 0
v -4.5 -13 0
v -4.5 -12.5 0
v -4 -12.5 0
v -4.5 -13 0
v -5 -13 0
v -5 -12.5 0
v -4.5 -12.5 0
v -5 -13 0
v -5.5 -13 0
v -5.5 -12.5 0
v -5 -12.5 0
v -5.5 -13 0
v -6 -13 0
v -6 -12.5 0
v -5.5 -12.5 0
v -6 -13 0
v -6.5 -13 0
v -6.5 -12.5 0
v -6 -12.5 0
v -6.5 -13 0
v -7 -13 0
v -7 -12.5 0
v -6.5 -12.5 0
v -7 -13 0
v -7.5 -13 0
v -7.5 -12.5 0
v -7 -12.5 0
v -7.5 -13 0
v -8 -13 0
v -8 -12.5 0
v -7.5 -12.5 0
v -8 -13 0
v -8.5 -13 0
v -8.5 -12.5 0
v -8 -12.5 0
v -8.5 -13 0
v -9 -13 0
v -9 -12.5 0
v -8.5 -12.5 0
v -9 -13 0
v -9.5 -13 0
v -9.5 -12.5 0
v -9 -12.5 0
v -9.5 -13 0
v -10 -13 0
v -10 -12.5 0
v -9.5 -12.5 0
v -10 -13 0
v -10.5 -13 0
v -10.5 -12.5 0
v -10 -12.5 0
v -10.5 -13 0
v -11 -13 0
v -11 -12.5 0
v -10.5 -12.5 0
v -11 -13 0
v -11.5 -13 0
v -11.5 -12.5 0
v -11 -12.5 0
v -11.5 -13 0
v -12 -13 0
v -12 -12.5 0
v -11.5 -12.5 0
v -12 -13 0
v -12.5 -13 0
v -12.5 -12.5 0
v -12 -12.5 0
v -12.5 -13 0
v -13 -13 0
v -13 -12.5 0
v -12.5 -12.5 0
v -13 -13 0
v -13.5 -13 0
v -13.5 -12.5 0
v -13 -12.5 0
v -13.5 -13 0
v -14 -13 0
v -14 -12.5 0
v -13.5 -12.5 0
v -14 -13 0
v -14.5 -13 0
v -14.5 -12.5 0
v -14 -12.5 0
v -0.5 -12.5 0
v -1 -12.5 0
v -1 -12 0
v -0.5 -12 0
v -1 -12.5 0
v -1.5 -12.5 0
v -1.5 -12 0
v -1 -12 0
v -1.5 -12.5 0
v -2 -12.5 0
v -2 -12 0
v -1.5 -12 0
v -2 -12.5 0
v -2.5 -12.5 0
v -2.5 -12 0
v -2 -12 0
v -2.5 -12.5 0
v -3 -12.5 0
v -3 -12 0
v -2.5 -12 0
v -3 -12.5 0
v -3.5 -12.5 0
v -3.5 -12 0
v -3 -12 0
v -3.5 -12.5 0
v -4 -12.5 0
v -4 -12 0
v -3.5 -12 0
v -4 -12.5 0
v -4.5 -12.5 0
v -4.5 -12 0
v -4 -12 0
v -4.5 -12.5 0
v -5 -12.5 0
v -5 -12 0
v -4.5 -12 0
v -5 -12.5 0
v -5.5 -12.5 0
v -5.5 -12 0
v -5 -12 0
v -5.5 -12.5 0
v -6 -12.5 0
v -6 -12 0
v -5.5 -12 0
v -6 -12.5 0
v -6.5 -12.5 0
v -6.5 -12 0
v -6 -12 0
v -6.5 -12.5 0
v -7 -12.5 0
v -7 -12 0
v -6.5 -12 0
v -7 -12.5 0
v -7.5 -12.5 0
v -7.5 -12 0
v -7 -12 0
v -7.5 -12.5 0
v -8 -12.5 0
v -8 -12 0
v -7.5 -12 0
v -8 -12.5 0
v -8.5 -12.5 0
v -8.5 -12 0
v -8 -12 0
v -8.5 -12.5 0
v -9 -12.5 0
v -9 -12 0
v -8.5 -12 0
v -9 -12.5 0
v -9.5 -12.5 0
v -9.5 -12 0
v -9 -12 0
v -9.5 -12.5 0
v -10 -12.5 0
v -10 -12 0
v -9.5 -12 0
v -10 -12.5 0
v -10.5 -12.5 0
v -10.5 -12 0
v -10 -12 0
v -10.5 -12.5 0
v -11 -12.5 0
v -11 -12 0
v -10.5 -12 0
v -11 -12.5 0
v -11.5 -12.5 0
v -11.5 -12 0
v -11 -12 0
v -11.5 -12.5 0
v -12 -12.5 0
v -12 -12 0
v -11.5 -12 0
v -12 -12.5 0
v -12.5 -12.5 0
v -12.5 -12 0
v -12 -12 0
v -12.5 -12.5 0
v -13 -12.5 0
v -13 -12 0
v -12.5 -12 0
v -13 -12.5 0
v -13.5 -12.5 0
v -13.5 -12 0
v -13 -12 0
v -13.5 -12.5 0
v -14 -12.5 0
v -14 -12 0
v -13.5 -12 0
v -14 -12.5 0
v -14.5 -12.5 0
v -14.5 -12 0
v -14 -12 0
v -0.5 -12 0
v -1 -12 0
v -1 -11.5 0
v -0.5 -11.5 0
v -1 -12 0
v -1.5 -12 0
v -1.5 -11.5 0
v -1 -11.5 0
v -1.5 -12 0
v -2 -12 0
v -2 -11.5 0
v -1.5 -11.5 0
v -2 -12 0
v -2.5 -12 0
v -2.5 -11.5 0
v -2 -11.5 0
v -2.5 -12 0
v -3 -12 0
v -3 -11.5 0
v -2.5 -11.5 0
v -3 -12 0
v -3.5 -12 0
v -3.5 -11.5 0
v -3 -11.5 0
v -3.5 -12 0
v -4 -12 0
v -4 -11.5 0
v -3.5 -11.5 0
v -4 -12 0
v -4.5 -12 0
v -4.5 -11.5 0
v -4 -11.5 0
v -4.5 -12 0
v -5 -12 0
v -5 -11.5 0
v -4.5 -11.5 0
v -5 -12 0
v -5.5 -12 0
v -5.5 -11.5 0
v -5 -11.5 0
v -5.5 -12 0
v -6 -12 0
v -6 -11.5 0
v -5.5 -11.5 0
v -6 -12 0
v -6.5 -12 0
v -6.5 -11.5 0
v -6 -11.5 0
v -6.5 -12 0
v -7 -12 0
v -7 -11.5 0
v -6.5 -11.5 0
v -7 -12 0
v -7.5 -12 0
v -7.5 -11.5 0
v -7 -11.5 0
v -7.5 -12 0
v -8 -12 0
v -8 -11.5 0
v -7.5 -11.5 0
v -8 -12 0
v -8.5 -12 0
v -8.5 -11.5 0
v -8 -11.5 0
v -8.5 -12 0
v -9 -12 0
v -9 -11.5 0
v -8.5 -11.5 0
v -9 -12 0
v -9.5 -12 0
v -9.5 -11.5 0
v -9 -11.5 0
v -9.5 -12 0
v -10 -12 0
v -10 -11.5 0
v -9.5 -11.5 0
v -10 -12 0
v -10.5 -12 0
v -10.5 -11.5 0
v -10 -11.5 0
v -10.5 -12 0
v -11 -12 0
v -11 -11.5 0
v -10.5 -11.5 0
v -11 -12 0
v -11.5 -12 0
v -11.5 -11.5 0
v -11 -11.5 0
v -11.5 -12 0
v -12 -12 0
v -12 -11.5 0
v -11.5 -11.5 0
v -12 -12 0
v -12.5 -12 0
v -12.5 -11.5 0
v -12 -11.5 0
v -12.5 -12 0
v -13 -12 0
v -13 -11.5 0
v -12.5 -11.5 0
v -13 -12 0
v -13.5 -12 0
v -13.5 -11.5 0
v -13 -11.5 0
v -13.5 -12 0
v -14 -12 0
v -14 -11.5 0
v -13.5 -11.5 0
v -14 -12 0
v -14.5 -12 0
v -14.5 -11.5 0
v -14 -11.5 0
v -1.5 -3.5 0
v -2 -3.5 0
v -2 -3 0
v -1.5 -3 0
v -2 -3.5 0
v -2.5 -3.5 0
v -2.5 -3 0
v -2 -3 0
v -2.5 -3.5 0
v -3 -3.5 0
v -3 -3 0
v -2.5 -3 0
v -3 -3.5 0
v -3.5 -3.5 0
v -3.5 -3 0
v -3 -3 0
v -3.5 -3.5 0
v -4 -3.5 0
v -4 -3 0
v -3.5 -3 0
v -4 -3.5 0
v -4.5 -3.5 0
v -4.5 -3 0
v -4 -3 0
v -4.5 -3.5 0
v -5 -3.5 0
v -5 -3 0
v -4.5 -3 0
v -5 -3.5 0
v -5.5 -3.5 0
v -5.5 -3 0
v -5 -3 0
v -5.5 -3.5 0
v -6 -3.5 0
v -6 -3 0
v -5.5 -3 0
v -6 -3.5 0
v -6.5 -3.5 0
v -6.5 -3 0
v -6 -3 0
v -6.5 -3.5 0
v -7 -3.5 0
v -7 -3 0
v -6.5 -3 0
v -7 -3.5 0
v -7.5 -3.5 0
v -7.5 -3 0
v -7 -3 0
v -7.5 -3.5 0
v -8 -3.5 0
v -8 -3 0
v -7.5 -3 0
v -8 -3.5 0
v -8.5 -3.5 0
v -8.5 -3 0
v -8 -3 0
v -9.5 -3.5 0
v -10 -3.5 0
v -10 -3 0
v -9.5 -3 0
v -10 -3.5 0
v -10.5 -3.5 0
v -10.5 -3 0
v -10 -3 0
v -10.5 -3.5 0
v -11 -3.5 0
v -11 -3 0
v -10.5 -3 0
v -11 -3.5 0
v -11.5 -3.5 0
v -11.5 -3 0
v -11 -3 0
v -11.5 -3.5 0
v -12 -3.5 0
v -12 -3 0
v -11.5 -3 0
v -12 -3.5 0
v -12.5 -3.5 0
v -12.5 -3 0
v -12 -3 0
v -12.5 -3.5 0
v -13 -3.5 0
v -13 -3 0
v -12.5 -3 0
v -13 -3.5 0
v -13.5 -3.5 0
v -13.5 -3 0
v -13 -3 0
v -1.5 -3 0
v -2 -3 0
v -2 -2.5 0
v -1.5 -2.5 0
v -2 -3 0
v -2.5 -3 0
v -2.5 -2.5 0
v -2 -2.5 0
v -2.5 -3 0
v -3 -3 0
v -3 -2.5 0
v -2.5 -2.5 0
v -3 -3 0
v -3.5 -3 0
v -3.5 -2.5 0
v -3 -2.5 0
v -3.5 -3 0
v -4 -3 0
v -4 -2.5 0
v -3.5 -2.5 0
v -4 -3 0
v -4.5 -3 0
v -4.5 -2.5 0
v -4 -2.5 0
v -4.5 -3 0
v -5 -3 0
v -5 -2.5 0
v -4.5 -2.5 0
v -5 -3 0
v -5.5 -3 0
v -5.5 -2.5 0
v -5 -2.5 0
v -5.5 -3 0
v -6 -3 0
v -6 -2.5 0
v -5.5 -2.5 0
v -6 -3 0
v -6.5 -3 0
v -6.5 -2.5 0
v -6 -2.5 0
v -6.5 -3 0
v -7 -3 0
v -7 -2.5 0
v -6.5 -2.5 0
v -7 -3 0
v -7.5 -3 0
v -7.5 -2.5 0
v -7 -2.5 0
v -7.5 -3 0
v -8 -3 0
v -8 -2.5 0
v -7.5 -2.5 0
v -8 -3 0
v -8.5 -3 0
v -8.5 -2.5 0
v -8 -2.5 0
v -8.5 -3 0
v -9 -3 0
v -9 -2.5 0
v -8.5 -2.5 0
v -9 -3 0
v -9.5 -3 0
v -9.5 -2.5 0
v -9 -2.5 0
v -9.5 -3 0
v -10 -3 0
v -10 -2.5 0
v -9.5 -2.5 0
v -10 -3 0
v -10.5 -3 0
v -10.5 -2.5 0
v -10 -2.5 0
v -10.5 -3 0
v -11 -3 0
v -11 -2.5 0
v -10.5 -2.5 0
v -11 -3 0
v -11.5 -3 0
v -11.5 -2.5 0
v -11 -2.5 0
v -11.5 -3 0
v -12 -3 0
v -12 -2.5 0
v -11.5 -2.5 0
v -12 -3 0
v -12.5 -3 0
v -12.5 -2.5 0
v -12 -2.5 0
v -12.5 -3 0
v -13 -3 0
v -13 -2.5 0
v -12.5 -2.5 0
v -13 -3 0
v -13.5 -3 0
v -13.5 -2.5 0
v -13 -2.5 0
v -1.5 -2.5 0
v -2 -2.5 0
v -2 -2 0
v -1.5 -2 0
v -2 -2.5 0
v -2.5 -2.5 0
v -2.5 -2 0
v -2 -2 0
v -2.5 -2.5 0
v -3 -2.5 0
v -3 -2 0
v -2.5 -2 0
v -3 -2.5 0
v -3.5 -2.5 0
v -3.5 -2 0
v -3 -2 0
v -3.5 -2.5 0
v -4 -2.5 0
v -4 -2 0
v -3.5 -2 0
v -4 -2.5 0
v -4.5 -2.5 0
v -4.5 -2 0
v -4 -2 0
v -4.5 -2.5 0
v -5 -2.5 0
v -5 -2 0
v -4.5 -2 0
v -5 -2.5 0
v -5.5 -2.5 0
v -5.5 -2 0
v -5 -2 0
v -5.5 -2.5 0
v -6 -2.5 0
v -6 -2 0
v -5.5 -2 0
v -6 -2.5 0
v -6.5 -2.5 0
v -6.5 -2 0
v -6 -2 0
v -6.5 -2.5 0
v -7 -2.5 0
v -7 -2 0
v -6.5 -2 0
v -7 -2.5 0
v -7.5 -2.5 0
v -7.5 -2 0
v -7 -2 0
v -7.5 -2.5 0
v -8 -2.5 0
v -8 -2 0
v -7.5 -2 0
v -8 -2.5 0
v -8.5 -2.5 0
v -8.5 -2 0
v -8 -2 0
v -8.5 -2.5 0
v -9 -2.5 0
v -9 -2 0
v -8.5 -2 0
v -9 -2.5 0
v -9.5 -2.5 0
v -9.5 -2 0
v -9 -2 0
v -9.5 -2.5 0
v -10 -2.5 0
v -10 -2 0
v -9.5 -2 0
v -10 -2.5 0
v -10.5 -2.5 0
v -10.5 -2 0
v -10 -2 0
v -10.5 -2.5 0
v -11 -2.5 0
v -11 -2 0
v -10.5 -2 0
v -11 -2.5 0
v -11.5 -2.5 0
v -11.5 -2 0
v -11 -2 0
v -11.5 -2.5 0
v -12 -2.5 0
v -12 -2 0
v -11.5 -2 0
v -12 -2.5 0
v -12.5 -2.5 0
v -12.5 -2 0
v -12 -2 0
v -12.5 -2.5 0
v -13 -2.5 0
v -13 -2 0
v -12.5 -2 0
v -13 -2.5 0
v -13.5 -2.5 0
v -13.5 -2 0
v -13 -2 0
v -1.5 -2 0
v -2 -2 0
v -2 -1.5 0
v -1.5 -1.5 0
v -2 -2 0
v -2.5 -2 0
v -2.5 -1.5 0
v -2 -1.5 0
v -2.5 -2 0
v -3 -2 0
v -3 -1.5 0
v -2.5 -1.5 0
v -3 -2 0
v -3.5 -2 0
v -3.5 -1.5 0
v -3 -1.5 0
v -3.5 -2 0
v -4 -2 0
v -4 -1.5 0
v -3.5 -1.5 0
v -4 -2 0
v -4.5 -2 0
v -4.5 -1.5 0
v -4 -1.5 0
v -4.5 -2 0
v -5 -2 0
v -5 -1.5 0
v -4.5 -1.5 0
v -5 -2 0
v -5.5 -2 0
v -5.5 -1.5 0
v -5 -1.5 0
v -5.5 -2 0
v -6 -2 0
v -6 -1.5 0
v -5.5 -1.5 0
v -6 -2 0
v -6.5 -2 0
v -6.5 -1.5 0
v -6 -1.5 0
v -6.5 -2 0
v -7 -2 0
v -7 -1.5 0
v -6.5 -1.5 0
v -7 -2 0
v -7.5 -2 0
v -7.5 -1.5 0
v -7 -1.5 0
v -7.5 -2 0
v -8 -2 0
v -8 -1.5 0
v -7.5 -1.5 0
v -8 -2 0
v -8.5 -2 0
v -8.5 -1.5 0
v -8 -1.5 0
v -8.5 -2 0
v -9 -2 0
v -9 -1.5 0
v -8.5 -1.5 0
v -9 -2 0
v -9.5 -2 0
v -9.5 -1.5 0
v -9 -1.5 0
v -9.5 -2 0
v -10 -2 0
v -10 -1.5 0
v -9.5 -1.5 0
v -10 -2 0
v -10.5 -2 0
v -10.5 -1.5 0
v -10 -1.5 0
v -10.5 -2 0
v -11 -2 0
v -11 -1.5 0
v -10.5 -1.5 0
v -11 -2 0
v -11.5 -2 0
v -11.5 -1.5 0
v -11 -1.5 0
v -11.5 -2 0
v -12 -2 0
v -12 -1.5 0
v -11.5 -1.5 0
v -12 -2 0
v -12.5 -2 0
v -12.5 -1.5 0
v -12 -1.5 0
v -12.5 -2 0
v -13 -2 0
v -13 -1.5 0
v -12.5 -1.5 0
v -13 -2 0
v -13.5 -2 0
v -13.5 -1.5 0
v -13 -1.5 0

# Texture cooridinates (Count = 18)
vt 0.925 0.75
vt 0.95 0.75
vt 0.95 0.775
vt 0.925 0.775
vt 0.975 0.75
vt 0.975 0.775
vt 0.95 0.8
vt 0.925 0.8
vt 0.975 0.8
vt 0.95 0.825
vt 0.925 0.825
vt 0.975 0.825
vt 0.95 0.85
vt 0.925 0.85
vt 0.975 0.85
vt 0.95 0.875
vt 0.925 0.875
vt 0.975 0.875

# Normal
vn 0 0 -1

# Mesh description
g The-room-of-boredom_mesh_0002

# Faces
f 1/1/1 2/2/1 3/3/1 4/4/1
f 5/2/1 6/5/1 7/6/1 8/3/1
f 9/2/1 10/5/1 11/6/1 12/3/1
f 13/2/1 14/5/1 15/6/1 16/3/1
f 17/2/1 18/5/1 19/6/1 20/3/1
f 21/2/1 22/5/1 23/6/1 24/3/1
f 25/2/1 26/5/1 27/6/1 28/3/1
f 29/2/1 30/5/1 31/6/1 32/3/1
f 33/2/1 34/5/1 35/6/1 36/3/1
f 37/2/1 38/5/1 39/6/1 40/3/1
f 41/2/1 42/5/1 43/6/1 44/3/1
f 45/2/1 46/5/1 47/6/1 48/3/1
f 49/2/1 50/5/1 51/6/1 52/3/1
f 53/2/1 54/5/1 55/6/1 56/3/1
f 57/2/1 58/5/1 59/6/1 60/3/1
f 61/2/1 62/5/1 63/6/1 64/3/1
f 65/2/1 66/5/1 67/6/1 68/3/1
f 69/2/1 70/5/1 71/6/1 72/3/1
f 73/2/1 74/5/1 75/6/1 76/3/1
f 77/2/1 78/5/1 79/6/1 80/3/1
f 81/2/1 82/5/1 83/6/1 84/3/1
f 85/2/1 86/5/1 87/6/1 88/3/1
f 89/2/1 90/5/1 91/6/1 92/3/1
f 93/2/1 94/5/1 95/6/1 96/3/1
f 97/2/1 98/5/1 99/6/1 100/3/1
f 101/2/1 102/5/1 103/6/1 104/3/1
f 105/2/1 106/5/1 107/6/1 108/3/1
f 109/2/1 110/5/1 111/6/1 112/3/1
f 113/4/1 114/3/1 115/7/1 116/8/1
f 117/3/1 118/6/1 119/9/1 120/7/1
f 121/3/1 122/6/1 123/9/1 124/7/1
f 125/3/1 126/6/1 127/9/1 128/7/1
f 129/3/1 130/6/1 131/9/1 132/7/1
f 133/3/1 134/6/1 135/9/1 136/7/1
f 137/3/1 138/6/1 139/9/1 140/7/1
f 141/3/1 142/6/1 143/9/1 144/7/1
f 145/3/1 146/6/1 147/9/1 148/7/1
f 149/3/1 150/6/1 151/9/1 152/7/1
f 153/3/1 154/6/1 155/9/1 156/7/1
f 157/3/1 158/6/1 159/9/1 160/7/1
f 161/3/1 162/6/1 163/9/1 164/7/1
f 165/3/1 166/6/1 167/9/1 168/7/1
f 169/3/1 170/6/1 171/9/1 172/7/1
f 173/3/1 174/6/1 175/9/1 176/7/1
f 177/3/1 178/6/1 179/9/1 180/7/1
f 181/3/1 182/6/1 183/9/1 184/7/1
f 185/3/1 186/6/1 187/9/1 188/7/1
f 189/3/1 190/6/1 191/9/1 192/7/1
f 193/3/1 194/6/1 195/9/1 196/7/1
f 197/3/1 198/6/1 199/9/1 200/7/1
f 201/3/1 202/6/1 203/9/1 204/7/1
f 205/3/1 206/6/1 207/9/1 208/7/1
f 209/3/1 210/6/1 211/9/1 212/7/1
f 213/3/1 214/6/1 215/9/1 216/7/1
f 217/3/1 218/6/1 219/9/1 220/7/1
f 221/3/1 222/6/1 223/9/1 224/7/1
f 225/8/1 226/7/1 227/10/1 228/11/1
f 229/7/1 230/9/1 231/12/1 232/10/1
f 233/7/1 234/9/1 235/12/1 236/10/1
f 237/7/1 238/9/1 239/12/1 240/10/1
f 241/7/1 242/9/1 243/12/1 244/10/1
f 245/7/1 246/9/1 247/12/1 248/10/1
f 249/7/1 250/9/1 251/12/1 252/10/1
f 253/7/1 254/9/1 255/12/1 256/10/1
f 257/7/1 258/9/1 259/12/1 260/10/1
f 261/7/1 262/9/1 263/12/1 264/10/1
f 265/7/1 266/9/1 267/12/1 268/10/1
f 269/7/1 270/9/1 271/12/1 272/10/1
f 273/7/1 274/9/1 275/12/1 276/10/1
f 277/7/1 278/9/1 279/12/1 280/10/1
f 281/7/1 282/9/1 283/12/1 284/10/1
f 285/7/1 286/9/1 287/12/1 288/10/1
f 289/7/1 290/9/1 291/12/1 292/10/1
f 293/7/1 294/9/1 295/12/1 296/10/1
f 297/7/1 298/9/1 299/12/1 300/10/1
f 301/7/1 302/9/1 303/12/1 304/10/1
f 305/7/1 306/9/1 307/12/1 308/10/1
f 309/7/1 310/9/1 311/12/1 312/10/1
f 313/7/1 314/9/1 315/12/1 316/10/1
f 317/7/1 318/9/1 319/12/1 320/10/1
f 321/7/1 322/9/1 323/12/1 324/10/1
f 325/7/1 326/9/1 327/12/1 328/10/1
f 329/7/1 330/9/1 331/12/1 332/10/1
f 333/7/1 334/9/1 335/12/1 336/10/1
f 337/11/1 338/10/1 339/13/1 340/14/1
f 341/10/1 342/12/1 343/15/1 344/13/1
f 345/10/1 346/12/1 347/15/1 348/13/1
f 349/10/1 350/12/1 351/15/1 352/13/1
f 353/10/1 354/12/1 355/15/1 356/13/1
f 357/10/1 358/12/1 359/15/1 360/13/1
f 361/10/1 362/12/1 363/15/1 364/13/1
f 365/10/1 366/12/1 367/15/1 368/13/1
f 369/10/1 370/12/1 371/15/1 372/13/1
f 373/10/1 374/12/1 375/15/1 376/13/1
f 377/10/1 378/12/1 379/15/1 380/13/1
f 381/10/1 382/12/1 383/15/1 384/13/1
f 385/10/1 386/12/1 387/15/1 388/13/1
f 389/10/1 390/12/1 391/15/1 392/13/1
f 393/10/1 394/12/1 395/15/1 396/13/1
f 397/10/1 398/12/1 399/15/1 400/13/1
f 401/10/1 402/12/1 403/15/1 404/13/1
f 405/10/1 406/12/1 407/15/1 408/13/1
f 409/10/1 410/12/1 411/15/1 412/13/1
f 413/10/1 414/12/1 415/15/1 416/13/1
f 417/10/1 418/12/1 419/15/1 420/13/1
f 421/10/1 422/12/1 423/15/1 424/13/1
f 425/10/1 426/12/1 427/15/1 428/13/1
f 429/10/1 430/12/1 431/15/1 432/13/1
f 433/10/1 434/12/1 435/15/1 436/13/1
f 437/10/1 438/12/1 439/15/1 440/13/1
f 441/10/1 442/12/1 443/15/1 444/13/1
f 445/10/1 446/12/1 447/15/1 448/13/1
f 449/14/1 450/13/1 451/16/1 452/17/1
f 453/13/1 454/15/1 455/18/1 456/16/1
f 457/13/1 458/15/1 459/18/1 460/16/1
f 461/13/1 462/15/1 463/18/1 464/16/1
f 465/13/1 466/15/1 467/18/1 468/16/1
f 469/13/1 470/15/1 471/18/1 472/16/1
f 473/13/1 474/15/1 475/18/1 476/16/1
f 477/13/1 478/15/1 479/18/1 480/16/1
f 481/13/1 482/15/1 483/18/1 484/16/1
f 485/13/1 486/15/1 487/18/1 488/16/1
f 489/13/1 490/15/1 491/18/1 492/16/1
f 493/13/1 494/15/1 495/18/1 496/16/1
f 497/13/1 498/15/1 499/18/1 500/16/1
f 501/13/1 502/15/1 503/18/1 504/16/1
f 505/13/1 506/15/1 507/18/1 508/16/1
f 509/13/1 510/15/1 511/18/1 512/16/1
f 513/13/1 514/15/1 515/18/1 516/16/1
f 517/13/1 518/15/1 519/18/1 520/16/1
f 521/13/1 522/15/1 523/18/1 524/16/1
f 525/13/1 526/15/1 527/18/1 528/16/1
f 529/13/1 530/15/1 531/18/1 532/16/1
f 533/13/1 534/15/1 535/18/1 536/16/1
f 537/13/1 538/15/1 539/18/1 540/16/1
f 541/13/1 542/15/1 543/18/1 544/16/1
f 545/13/1 546/15/1 547/18/1 548/16/1
f 549/13/1 550/15/1 551/18/1 552/16/1
f 553/13/1 554/15/1 555/18/1 556/16/1
f 557/13/1 558/15/1 559/18/1 560/16/1
f 561/1/1 562/2/1 563/3/1 564/4/1
f 565/2/1 566/5/1 567/6/1 568/3/1
f 569/2/1 570/5/1 571/6/1 572/3/1
f 573/2/1 574/5/1 575/6/1 576/3/1
f 577/1/1 578/2/1 579/3/1 580/4/1
f 581/2/1 582/5/1 583/6/1 584/3/1
f 585/1/1 586/2/1 587/3/1 588/4/1
f 589/1/1 590/2/1 591/3/1 592/4/1
f 593/2/1 594/5/1 595/6/1 596/3/1
f 597/1/1 598/2/1 599/3/1 600/4/1
f 601/2/1 602/5/1 603/6/1 604/3/1
f 605/1/1 606/2/1 607/3/1 608/4/1
f 609/1/1 610/2/1 611/3/1 612/4/1
f 613/2/1 614/5/1 615/6/1 616/3/1
f 617/1/1 618/2/1 619/3/1 620/4/1
f 621/2/1 622/5/1 623/6/1 624/3/1
f 625/1/1 626/2/1 627/3/1 628/4/1
f 629/2/1 630/5/1 631/6/1 632/3/1
f 633/2/1 634/5/1 635/6/1 636/3/1
f 637/1/1 638/2/1 639/3/1 640/4/1
f 641/1/1 642/2/1 643/3/1 644/4/1
f 645/2/1 646/5/1 647/6/1 648/3/1
f 649/4/1 650/3/1 651/7/1 652/8/1
f 653/3/1 654/6/1 655/9/1 656/7/1
f 657/3/1 658/6/1 659/9/1 660/7/1
f 661/3/1 662/6/1 663/9/1 664/7/1
f 665/4/1 666/3/1 667/7/1 668/8/1
f 669/3/1 670/6/1 671/9/1 672/7/1
f 673/4/1 674/3/1 675/7/1 676/8/1
f 677/4/1 678/3/1 679/7/1 680/8/1
f 681/3/1 682/6/1 683/9/1 684/7/1
f 685/4/1 686/3/1 687/7/1 688/8/1
f 689/3/1 690/6/1 691/9/1 692/7/1
f 693/4/1 694/3/1 695/7/1 696/8/1
f 697/4/1 698/3/1 699/7/1 700/8/1
f 701/3/1 702/6/1 703/9/1 704/7/1
f 705/4/1 706/3/1 707/7/1 708/8/1
f 709/3/1 710/6/1 711/9/1 712/7/1
f 713/4/1 714/3/1 715/7/1 716/8/1
f 717/3/1 718/6/1 719/9/1 720/7/1
f 721/4/1 722/3/1 723/7/1 724/8/1
f 725/3/1 726/6/1 727/9/1 728/7/1
f 729/3/1 730/6/1 731/9/1 732/7/1
f 733/4/1 734/3/1 735/7/1 736/8/1
f 737/4/1 738/3/1 739/7/1 740/8/1
f 741/3/1 742/6/1 743/9/1 744/7/1
f 745/8/1 746/7/1 747/10/1 748/11/1
f 749/7/1 750/9/1 751/12/1 752/10/1
f 753/7/1 754/9/1 755/12/1 756/10/1
f 757/7/1 758/9/1 759/12/1 760/10/1
f 761/8/1 762/7/1 763/10/1 764/11/1
f 765/7/1 766/9/1 767/12/1 768/10/1
f 769/8/1 770/7/1 771/10/1 772/11/1
f 773/8/1 774/7/1 775/10/1 776/11/1
f 777/7/1 778/9/1 779/12/1 780/10/1
f 781/8/1 782/7/1 783/10/1 784/11/1
f 785/7/1 786/9/1 787/12/1 788/10/1
f 789/8/1 790/7/1 791/10/1 792/11/1
f 793/8/1 794/7/1 795/10/1 796/11/1
f 797/7/1 798/9/1 799/12/1 800/10/1
f 801/8/1 802/7/1 803/10/1 804/11/1
f 805/7/1 806/9/1 807/12/1 808/10/1
f 809/8/1 810/7/1 811/10/1 812/11/1
f 813/7/1 814/9/1 815/12/1 816/10/1
f 817/8/1 818/7/1 819/10/1 820/11/1
f 821/7/1 822/9/1 823/12/1 824/10/1
f 825/7/1 826/9/1 827/12/1 828/10/1
f 829/8/1 830/7/1 831/10/1 832/11/1
f 833/8/1 834/7/1 835/10/1 836/11/1
f 837/7/1 838/9/1 839/12/1 840/10/1
f 841/11/1 842/10/1 843/13/1 844/14/1
f 845/10/1 846/12/1 847/15/1 848/13/1
f 849/10/1 850/12/1 851/15/1 852/13/1
f 853/10/1 854/12/1 855/15/1 856/13/1
f 857/11/1 858/10/1 859/13/1 860/14/1
f 861/10/1 862/12/1 863/15/1 864/13/1
f 865/11/1 866/10/1 867/13/1 868/14/1
f 869/11/1 870/10/1 871/13/1 872/14/1
f 873/10/1 874/12/1 875/15/1 876/13/1
f 877/11/1 878/10/1 879/13/1 880/14/1
f 881/10/1 882/12/1 883/15/1 884/13/1
f 885/11/1 886/10/1 887/13/1 888/14/1
f 889/11/1 890/10/1 891/13/1 892/14/1
f 893/10/1 894/12/1 895/15/1 896/13/1
f 897/11/1 898/10/1 899/13/1 900/14/1
f 901/10/1 902/12/1 903/15/1 904/13/1
f 905/11/1 906/10/1 907/13/1 908/14/1
f 909/10/1 910/12/1 911/15/1 912/13/1
f 913/11/1 914/10/1 915/13/1 916/14/1
f 917/10/1 918/12/1 919/15/1 920/13/1
f 921/10/1 922/12/1 923/15/1 924/13/1
f 925/11/1 926/10/1 927/13/1 928/14/1
f 929/11/1 930/10/1 931/13/1 932/14/1
f 933/10/1 934/12/1 935/15/1 936/13/1

